<?xml version="1.0" encoding="UTF-8" standalone="no"?>
<!-- Created with Inkscape (http://www.inkscape.org/) -->
<svg
   xmlns:dc="http://purl.org/dc/elements/1.1/"
   xmlns:cc="http://creativecommons.org/ns#"
   xmlns:rdf="http://www.w3.org/1999/02/22-rdf-syntax-ns#"
   xmlns:svg="http://www.w3.org/2000/svg"
   xmlns="http://www.w3.org/2000/svg"
   xmlns:sodipodi="http://sodipodi.sourceforge.net/DTD/sodipodi-0.dtd"
   xmlns:inkscape="http://www.inkscape.org/namespaces/inkscape"
   id="svg2403"
   sodipodi:version="0.32"
   inkscape:version="0.46"
   width="1373.801"
   height="981.70447"
   xml:space="preserve"
   sodipodi:docname="logo_cir.svg"
   inkscape:output_extension="org.inkscape.output.svg.inkscape"
   version="1.0"
   viewBox="0 0 1373 981"><metadata
     id="metadata2408"><rdf:RDF><cc:Work
         rdf:about=""><dc:format>image/svg+xml</dc:format><dc:type
           rdf:resource="http://purl.org/dc/dcmitype/StillImage" /></cc:Work></rdf:RDF></metadata><defs
     id="defs2406"><inkscape:perspective
       sodipodi:type="inkscape:persp3d"
       inkscape:vp_x="0 : 526.18109 : 1"
       inkscape:vp_y="0 : 1000 : 0"
       inkscape:vp_z="744.09448 : 526.18109 : 1"
       inkscape:persp3d-origin="372.04724 : 350.78739 : 1"
       id="perspective2410" /><clipPath
       clipPathUnits="userSpaceOnUse"
       id="clipPath2418"><path
         d="M 0,850.394 L 1133.858,850.394 L 1133.858,0 L 0,0 L 0,850.394 z"
         id="path2420" /></clipPath></defs><sodipodi:namedview
     inkscape:window-height="1105"
     inkscape:window-width="1920"
     inkscape:pageshadow="2"
     inkscape:pageopacity="0.0"
     guidetolerance="10.0"
     gridtolerance="10.0"
     objecttolerance="10.0"
     borderopacity="1.0"
     bordercolor="#666666"
     pagecolor="#ffffff"
     id="base"
     showgrid="false"
     inkscape:zoom="0.55278383"
     inkscape:cx="1066.8708"
     inkscape:cy="322.58488"
     inkscape:window-x="-5"
     inkscape:window-y="-3"
     inkscape:current-layer="g2412"
     inkscape:document-units="px"
     units="px" /><g
     id="g2412"
     inkscape:groupmode="layer"
     inkscape:label="LOGO CIR"
     transform="matrix(1.25,0,0,-1.25,-25.339168,1025.5083)"><g
       id="g2522"
       transform="matrix(2.3408751,0,0,2.3408751,84.060173,604.46092)"><path
         d="M 0,0 C 0,0 50.5,-55.5 140,-80 C 140,-80 238,-97.5 200,-55 C 200,-55 184.384,-62.987 226.5,-44 C 287.5,-16.5 476,-115 426.5,-19 C 426.5,-19 444.5,-43 440.5,-79.5 C 440.5,-79.5 445,-121 391.5,-175 C 391.5,-175 316.5,-247 197,-242 C 197,-242 102,-239 45,-194.5 C 45,-194.5 -14.5,-159 -25,-91 C -25,-91 -33.5,-39 0,0"
         style="fill:#c9e9f9;fill-opacity:1;fill-rule:nonzero;stroke:none"
         id="path2524" /></g><g
       id="g2526"
       transform="matrix(2.3408751,0,0,2.3408751,1035.6259,631.38099)"><path
         d="M 0,0 C 21.837,-23.668 -83.5,6.5 -105,13 C -126.5,19.5 -144,33 -196,37 C -248,41 -249.5,28.5 -243,9 C -236.5,-10.5 -262.5,-10.5 -262.5,-10.5 C -308,-14 -386,12 -386,12 C -386,12 -332.5,77.5 -194,79.5 C -194,79.5 -77.5,84 0,0"
         style="fill:#3aaadc;fill-opacity:1;fill-rule:nonzero;stroke:none"
         id="path2528" /></g><g
       id="g2530"
       transform="matrix(2.3408751,0,0,2.3408751,1116.3861,427.72486)"><path
         d="M 0,0 C 0,-83.955 -104.542,-166.5 -233.5,-166.5 C -362.458,-166.5 -467,-91.955 -467,0 C -467,91.955 -362.458,166.5 -233.5,166.5 C -104.542,166.5 0,91.955 0,0 z"
         style="fill:none;stroke:#1a171b;stroke-width:2.5;stroke-linecap:butt;stroke-linejoin:miter;stroke-miterlimit:4;stroke-dasharray:none;stroke-opacity:1"
         id="path2532" /></g><g
       id="g2534"
       transform="matrix(2.3408751,0,0,2.3408751,653.19455,520.59416)"><path
         d="M 0,0 L 107.373,41.332 C 107.373,41.332 111.796,42.4 111.644,47.891 C 111.491,53.381 111.644,57.499 112.559,58.262 C 113.474,59.024 114.541,56.584 115.304,52.923 C 116.066,49.263 117.896,43.162 117.896,43.162 C 117.896,43.162 117.896,39.959 115.304,38.739 C 112.711,37.519 54.145,7.168 26.996,-5.338 L 0,0 z"
         style="fill:#ffffff;fill-opacity:1;fill-rule:nonzero;stroke:none"
         id="path2536" /></g><g
       id="g2538"
       transform="matrix(2.3408751,0,0,2.3408751,653.19455,520.59416)"><path
         d="M 0,0 L 107.373,41.332 C 107.373,41.332 111.796,42.4 111.644,47.891 C 111.491,53.381 111.644,57.499 112.559,58.262 C 113.474,59.024 114.541,56.584 115.304,52.923 C 116.066,49.263 117.896,43.162 117.896,43.162 C 117.896,43.162 117.896,39.959 115.304,38.739 C 112.711,37.519 54.145,7.168 26.996,-5.338 L 0,0 z"
         style="fill:none;stroke:#1a171b;stroke-width:1;stroke-linecap:butt;stroke-linejoin:miter;stroke-miterlimit:4;stroke-dasharray:none;stroke-opacity:1"
         id="path2540" /></g><g
       id="g2542"
       transform="matrix(2.3408751,0,0,2.3408751,572.15111,498.81302)"><path
         d="M 0,0 C 0,0 -81.902,19.828 -103.103,23.641 L -99.747,60.55 L -79.614,62.38 L -74.276,22.878 L -7.321,13.117 C -7.321,13.117 4.729,11.744 18.302,10.524 C 31.876,9.304 36.979,9.94 42.317,9.33 C 42.317,9.33 38.587,-3.508 62.075,-10.676 C 85.563,-17.844 92.762,-12.704 92.762,-12.704 C 102.618,-20.47 101.753,-19.605 109.1,-26.641 C 109.1,-26.641 110.53,-27.943 108.897,-28.611 C 108.897,-28.611 97.751,-32.992 85.26,-32.61 C 75.349,-32.307 66.04,-28.979 52.771,-22.877 C 39.502,-16.776 13.879,-5.338 0,0"
         style="fill:#ffffff;fill-opacity:1;fill-rule:nonzero;stroke:none"
         id="path2544" /></g><g
       id="g2546"
       transform="matrix(2.3408751,0,0,2.3408751,572.15111,498.81302)"><path
         d="M 0,0 C 0,0 -81.902,19.828 -103.103,23.641 L -99.747,60.55 L -79.614,62.38 L -74.276,22.878 L -7.321,13.117 C -7.321,13.117 4.729,11.744 18.302,10.524 C 31.876,9.304 36.979,9.94 42.317,9.33 C 42.317,9.33 38.587,-3.508 62.075,-10.676 C 85.563,-17.844 92.762,-12.704 92.762,-12.704 C 102.618,-20.47 101.753,-19.605 109.1,-26.641 C 109.1,-26.641 110.53,-27.943 108.897,-28.611 C 108.897,-28.611 97.751,-32.992 85.26,-32.61 C 75.349,-32.307 66.04,-28.979 52.771,-22.877 C 39.502,-16.776 13.879,-5.338 0,0 z"
         style="fill:none;stroke:#1a171b;stroke-width:1;stroke-linecap:butt;stroke-linejoin:miter;stroke-miterlimit:4;stroke-dasharray:none;stroke-opacity:1"
         id="path2548" /></g><g
       id="g2550"
       transform="matrix(2.3408751,0,0,2.3408751,306.52336,639.83927)"><path
         d="M 0,0 L 45.756,7.778 L 48.349,6.101 C 48.349,6.101 48.806,5.338 46.976,4.575 C 45.146,3.813 35.842,1.22 35.842,1.22 C 35.842,1.22 34.164,0.763 31.877,0.305 C 29.589,-0.152 7.932,-2.136 7.932,-2.136 C 7.932,-2.136 5.644,-2.44 4.271,-1.983 C 2.898,-1.525 0.152,-0.763 0,0"
         style="fill:#ffffff;fill-opacity:1;fill-rule:nonzero;stroke:none"
         id="path2552" /></g><g
       id="g2554"
       transform="matrix(2.3408751,0,0,2.3408751,306.52336,639.83927)"><path
         d="M 0,0 L 45.756,7.778 L 48.349,6.101 C 48.349,6.101 48.806,5.338 46.976,4.575 C 45.146,3.813 35.842,1.22 35.842,1.22 C 35.842,1.22 34.164,0.763 31.877,0.305 C 29.589,-0.152 7.932,-2.136 7.932,-2.136 C 7.932,-2.136 5.644,-2.44 4.271,-1.983 C 2.898,-1.525 0.152,-0.763 0,0 z"
         style="fill:none;stroke:#1a171b;stroke-width:1;stroke-linecap:butt;stroke-linejoin:miter;stroke-miterlimit:4;stroke-dasharray:none;stroke-opacity:1"
         id="path2556" /></g><g
       id="g2558"
       transform="matrix(2.3408751,0,0,2.3408751,603.56776,505.2413)"><path
         d="M 0,0 C 0,0 4.729,0.915 8.999,0.152 C 13.27,-0.61 22.115,-2.745 24.861,-5.338 C 24.861,-5.338 27.912,-6.863 24.709,-7.474 C 21.506,-8.084 -44.688,-21.963 -44.688,-21.963 L -177.53,-46.519 C -177.53,-46.519 -196.9,-49.874 -202.849,-48.044 C -208.797,-46.214 -214.592,-37.215 -220.388,-26.081 C -220.388,-26.081 -221.761,-22.878 -220.998,-21.811 C -220.235,-20.743 -219.168,-21.505 -218.558,-22.573 L -204.373,-42.248 C -204.373,-42.248 -203.001,-44.841 -197.968,-43.926 C -192.935,-43.011 -74.886,-16.625 -74.886,-16.625 L 0,0 z"
         style="fill:#ffffff;fill-opacity:1;fill-rule:nonzero;stroke:none"
         id="path2560" /></g><g
       id="g2562"
       transform="matrix(2.3408751,0,0,2.3408751,603.56776,505.2413)"><path
         d="M 0,0 C 0,0 4.729,0.915 8.999,0.152 C 13.27,-0.61 22.115,-2.745 24.861,-5.338 C 24.861,-5.338 27.912,-6.863 24.709,-7.474 C 21.506,-8.084 -44.688,-21.963 -44.688,-21.963 L -177.53,-46.519 C -177.53,-46.519 -196.9,-49.874 -202.849,-48.044 C -208.797,-46.214 -214.592,-37.215 -220.388,-26.081 C -220.388,-26.081 -221.761,-22.878 -220.998,-21.811 C -220.235,-20.743 -219.168,-21.505 -218.558,-22.573 L -204.373,-42.248 C -204.373,-42.248 -203.001,-44.841 -197.968,-43.926 C -192.935,-43.011 -74.886,-16.625 -74.886,-16.625 L 0,0 z"
         style="fill:none;stroke:#1a171b;stroke-width:1;stroke-linecap:butt;stroke-linejoin:miter;stroke-miterlimit:4;stroke-dasharray:none;stroke-opacity:1"
         id="path2564" /></g><g
       id="g2566"
       transform="matrix(2.3408751,0,0,2.3408751,665.69225,522.02069)"><path
         d="M 0,0 C 0,0 12.658,0 30.351,-8.236 C 48.043,-16.472 54.754,-23.641 54.754,-23.641 C 54.754,-23.641 48.652,-32.792 31.876,-27.301 C 15.1,-21.81 8.693,-17.997 5.338,-16.015 C 1.982,-14.032 -4.881,-8.389 0,0"
         style="fill:#1a171b;fill-opacity:1;fill-rule:nonzero;stroke:none"
         id="path2568" /></g><g
       id="g2570"
       transform="matrix(2.3408751,0,0,2.3408751,351.83216,636.88579)"><path
         d="M 0,0 L -2.665,-36.333"
         style="fill:none;stroke:#1a171b;stroke-width:0.5;stroke-linecap:butt;stroke-linejoin:miter;stroke-miterlimit:4;stroke-dasharray:none;stroke-opacity:1"
         id="path2572" /></g><g
       id="g2574"
       transform="matrix(2.3408751,0,0,2.3408751,495.97646,520.62155)"><path
         d="M 0,0 L -1.51,0.271 L -1.319,6.001 L 0.191,5.731 L 0,0 z"
         style="fill:#000000;fill-opacity:1;fill-rule:nonzero;stroke:none"
         id="path2576" /></g><g
       id="g2578"
       transform="matrix(2.3408751,0,0,2.3408751,504.82567,523.079)"><path
         d="M 0,0 L -2.808,0.503 L -2.773,1.54 L 0.035,1.037 L 0,0 z"
         style="fill:#000000;fill-opacity:1;fill-rule:nonzero;stroke:none"
         id="path2580" /></g><g
       id="g2582"
       transform="matrix(2.3408751,0,0,2.3408751,510.65281,517.99485)"><path
         d="M 0,0 L -1.511,0.271 L -1.319,6.002 L 3.823,5.082 L 3.789,4.067 L 0.157,4.718 L 0.113,3.425 L 3.294,2.855 L 3.26,1.842 L 0.08,2.41 L 0,0 z"
         style="fill:#000000;fill-opacity:1;fill-rule:nonzero;stroke:none"
         id="path2584" /></g><g
       id="g2586"
       transform="matrix(2.3408751,0,0,2.3408751,524.76197,515.46881)"><path
         d="M 0,0 L -1.51,0.271 L -1.319,6.002 L 0.19,5.731 L 0,0 z"
         style="fill:#000000;fill-opacity:1;fill-rule:nonzero;stroke:none"
         id="path2588" /></g><g
       id="g2590"
       transform="matrix(2.3408751,0,0,2.3408751,538.30651,526.54232)"><path
         d="M 0,0 L 1.57,-0.281 L -1.076,-5.573 L -2.516,-5.315 L -4.76,0.852 L -3.14,0.562 L -1.734,-4.058 L -1.715,-4.062 L 0,0 z"
         style="fill:#000000;fill-opacity:1;fill-rule:nonzero;stroke:none"
         id="path2592" /></g><g
       id="g2594"
       transform="matrix(2.3408751,0,0,2.3408751,554.01846,523.73046)"><path
         d="M 0,0 L 1.569,-0.281 L -1.077,-5.573 L -2.516,-5.315 L -4.76,0.852 L -3.14,0.562 L -1.734,-4.058 L -1.715,-4.062 L 0,0 z"
         style="fill:#000000;fill-opacity:1;fill-rule:nonzero;stroke:none"
         id="path2596" /></g><g
       id="g2598"
       transform="matrix(2.3408751,0,0,2.3408751,676.69951,274.56678)"><path
         d="M 0,0 C -5.795,-1.883 -11.584,-3.742 -17.368,-5.576 C -32.528,-10.389 -45.651,-23.684 -45.243,-36.22 C -44.84,-49.023 -31.099,-58.762 -15.678,-55.374 C -9.94,-54.027 -4.206,-52.615 1.55,-51.129 C 1.651,-57.173 1.235,-65.016 1.33,-71.072 C -4.835,-72.563 -10.985,-73.912 -17.116,-75.119 C -43.638,-80.192 -68.962,-64.555 -69.914,-41.518 C -70.903,-18.787 -44.284,5.729 -18.604,14.481 C -12.375,16.619 -6.14,18.773 0.1,20.939 C 0.234,14.965 -0.132,5.986 0,0"
         style="fill:#00519e;fill-opacity:1;fill-rule:nonzero;stroke:none"
         id="path2600" /></g><g
       id="g2602"
       transform="matrix(2.3408751,0,0,2.3408751,714.29747,114.06141)"><path
         d="M 0,0 C -0.461,30.661 -0.979,64.18 -1.578,94.543 C 6.406,97.368 14.402,100.213 22.408,103.08 C 22.913,72.32 23.354,38.413 23.707,7.346 C 15.785,4.715 7.903,2.272 0,0"
         style="fill:#00519e;fill-opacity:1;fill-rule:nonzero;stroke:none"
         id="path2604" /></g><g
       id="g2606"
       transform="matrix(2.3408751,0,0,2.3408751,813.76406,146.14333)"><path
         d="M 0,0 C -0.188,21.324 -0.405,46.077 -0.659,67.258 C -0.948,87.17 17.739,104.768 39.414,112.814 C 55.638,118.914 74.503,117.242 74.456,101.041 C 74.425,92.713 60.271,76.791 60.271,76.791 C 60.358,76.294 76.206,75.012 75.835,64.932 C 75.77,56.895 75.7,51.851 75.622,43.794 C 67.763,39.154 59.907,34.711 51.993,30.427 C 52.007,38.83 52.015,44.221 52.019,52.602 C 52.534,59.832 46.396,60.498 39.249,56.883 C 35.63,55.264 33.819,54.467 30.196,52.9 C 30.164,58.545 30.124,64.184 30.091,69.818 C 38.118,73.043 50.383,79.734 50.346,88.861 C 50.317,95.321 43.491,96.469 36.771,93.795 C 29.698,90.996 23.188,84.4 23.349,77.808 C 23.522,56.451 23.665,31.525 23.771,10.027 C 15.843,6.5 7.94,3.167 0,0"
         style="fill:#00519e;fill-opacity:1;fill-rule:nonzero;stroke:none"
         id="path2608" /></g></g></svg>