<?xml version="1.0" encoding="UTF-8" standalone="no"?>
<!-- Created with Inkscape (http://www.inkscape.org/) -->

<svg
   xmlns:dc="http://purl.org/dc/elements/1.1/"
   xmlns:cc="http://creativecommons.org/ns#"
   xmlns:rdf="http://www.w3.org/1999/02/22-rdf-syntax-ns#"
   xmlns:svg="http://www.w3.org/2000/svg"
   xmlns="http://www.w3.org/2000/svg"
   xmlns:sodipodi="http://sodipodi.sourceforge.net/DTD/sodipodi-0.dtd"
   xmlns:inkscape="http://www.inkscape.org/namespaces/inkscape"
   width="744.09448819"
   height="1052.3622047"
   id="svg3799"
   version="1.1"
   inkscape:version="0.48.3.1 r9886"
   sodipodi:docname="glider.svg"
   inkscape:export-filename="/home/vihai/glider_16x16.png"
   inkscape:export-xdpi="3.4496183"
   inkscape:export-ydpi="3.4496183">
  <defs
     id="defs3801" />
  <sodipodi:namedview
     id="base"
     pagecolor="#ffffff"
     bordercolor="#666666"
     borderopacity="1.0"
     inkscape:pageopacity="0.0"
     inkscape:pageshadow="2"
     inkscape:zoom="1.4"
     inkscape:cx="391.64489"
     inkscape:cy="676.91644"
     inkscape:document-units="px"
     inkscape:current-layer="layer1"
     showgrid="false"
     inkscape:window-width="1920"
     inkscape:window-height="1120"
     inkscape:window-x="1916"
     inkscape:window-y="-4"
     inkscape:window-maximized="1" />
  <metadata
     id="metadata3804">
    <rdf:RDF>
      <cc:Work
         rdf:about="">
        <dc:format>image/svg+xml</dc:format>
        <dc:type
           rdf:resource="http://purl.org/dc/dcmitype/StillImage" />
        <dc:title></dc:title>
      </cc:Work>
    </rdf:RDF>
  </metadata>
  <g
     inkscape:label="Layer 1"
     inkscape:groupmode="layer"
     id="layer1">
    <path
       transform="translate(-24.642857,86.071415)"
       sodipodi:type="arc"
       style="fill:#000000;fill-opacity:1;fill-rule:evenodd;stroke:#000000;stroke-width:1px;stroke-linecap:butt;stroke-linejoin:miter;stroke-opacity:1"
       id="path2985"
       sodipodi:cx="387.5"
       sodipodi:cy="303.43362"
       sodipodi:rx="208.21428"
       sodipodi:ry="208.21428"
       d="m 595.71428,303.43362 a 208.21428,208.21428 0 1 1 -416.42856,0 208.21428,208.21428 0 1 1 416.42856,0 z" />
    <path
       style="fill:none;stroke:#ffffff;stroke-width:10;stroke-linecap:butt;stroke-linejoin:miter;stroke-opacity:1;stroke-miterlimit:4;stroke-dasharray:none"
       d="m 223.57143,496.6479 282.14286,0"
       id="path2993"
       inkscape:connector-curvature="0" />
    <path
       style="fill:none;stroke:#ffffff;stroke-width:10;stroke-linecap:butt;stroke-linejoin:miter;stroke-miterlimit:4;stroke-opacity:1;stroke-dasharray:none"
       d="m 226.78571,268.07647 0,229.28571"
       id="path2993-9"
       inkscape:connector-curvature="0"
       sodipodi:nodetypes="cc" />
    <path
       style="fill:none;stroke:#ffffff;stroke-width:8;stroke-linecap:round;stroke-linejoin:round;stroke-opacity:1;stroke-miterlimit:4;stroke-dasharray:none"
       d="m 225.71429,490.21933 c 2.44535,1.09718 2.32967,-1.52199 3.57142,-2.14286 0.98526,-0.49263 0.63891,0.86504 1.42858,-0.71429 0.10648,-0.21296 -0.21296,-0.6078 0,-0.71428 0.42591,-0.21296 0.97681,0.15058 1.42857,0 0.82049,-0.2735 0.99102,-1.70531 1.42857,-2.14286 0.16836,-0.16836 0.54593,0.16836 0.71428,0 0.16836,-0.16836 -0.16835,-0.54593 0,-0.71429 0.16836,-0.16835 0.50133,0.10648 0.71429,0 0.30117,-0.15058 0.47619,-0.47619 0.71429,-0.71428 0.23809,-0.2381 0.5637,-0.41312 0.71428,-0.71429 0.10648,-0.21296 -0.16836,-0.54592 0,-0.71428 0.16836,-0.16836 0.54593,0.16836 0.71429,0 0.33671,-0.33672 -0.21296,-1.00266 0,-1.42857 0.15058,-0.30117 0.5637,-0.41312 0.71428,-0.71429 0.10648,-0.21296 -0.16836,-0.54593 0,-0.71429 0.16836,-0.16835 0.54593,0.16836 0.71429,0 0.16836,-0.16835 -0.16836,-0.54592 0,-0.71428 0.16836,-0.16836 0.54593,0.16836 0.71428,0 0.16836,-0.16836 -0.16835,-0.54593 0,-0.71429 0.95239,-0.95238 0.6854,1.51523 1.42858,-0.71428 0.15058,-0.45176 -0.15059,-0.97682 0,-1.42857 0.21295,-0.63888 1.05501,-0.86824 1.42857,-1.42858 1.0949,-1.64235 0.33366,-1.92907 1.42857,-3.57142 0.37355,-0.56034 1.1274,-0.82624 1.42857,-1.42858 0.10648,-0.21295 -0.16836,-0.54592 0,-0.71428 0.16836,-0.16836 0.54593,0.16836 0.71429,0 0.16835,-0.16836 -0.16836,-0.54593 0,-0.71429 0.33671,-0.33671 1.09185,0.33672 1.42857,0 0.16836,-0.16836 -0.16836,-0.54592 0,-0.71428 0.16836,-0.16836 0.50132,0.10648 0.71428,0 0.30117,-0.15059 0.39485,-0.60781 0.71429,-0.71429 0.45175,-0.15058 1.00265,0.21296 1.42857,0 0.21296,-0.10648 -0.16836,-0.54593 0,-0.71428 0.16836,-0.16836 0.50133,0.10647 0.71429,0 0.30117,-0.15059 0.43412,-0.52751 0.71428,-0.71429 0.44298,-0.29532 0.98559,-0.41897 1.42857,-0.71429 0.28017,-0.18677 0.47619,-0.47619 0.71429,-0.71428 0.71428,-0.71429 1.42857,-1.42857 2.14286,-2.14286 0.45745,-0.45746 2.41151,-2.1887 2.85714,-2.85714 0.29532,-0.44298 0.41896,-0.98559 0.71428,-1.42857 0.18678,-0.28017 0.56371,-0.41312 0.71429,-0.71429 0.10648,-0.21296 -0.10648,-0.50133 0,-0.71428 0.30117,-0.60234 1.1274,-0.82624 1.42857,-1.42858 0.10648,-0.21295 -0.0753,-0.4884 0,-0.71428 0.16836,-0.50508 0.54593,-0.9235 0.71429,-1.42857 0.0753,-0.22588 -0.10648,-0.50133 0,-0.71429 0.15058,-0.30117 0.5637,-0.41312 0.71428,-0.71428 0.21296,-0.42592 -0.21296,-1.00266 0,-1.42858 0.15059,-0.30117 0.5637,-0.41311 0.71429,-0.71428 0.21296,-0.42592 -0.33672,-1.09186 0,-1.42857 0.16836,-0.16836 0.54593,0.16836 0.71428,0 0.33672,-0.33672 -0.33671,-1.09186 0,-1.42857 0.16836,-0.16836 0.54593,0.16835 0.71429,0 0.16836,-0.16836 -0.16836,-0.54593 0,-0.71429 0.16836,-0.16836 0.54593,0.16836 0.71429,0 0.16835,-0.16836 -0.10648,-0.50133 0,-0.71429 0.30117,-0.60233 1.05501,-0.86824 1.42857,-1.42857 0.29532,-0.44298 0.54592,-0.92349 0.71428,-1.42857 0.0753,-0.22588 -0.16836,-0.54593 0,-0.71428 0.16836,-0.16836 0.47619,0 0.71429,0 0.23809,-0.2381 0.54104,-0.42556 0.71428,-0.71429 0.54784,-0.91305 1.00913,-1.87844 1.42858,-2.85714 0.29659,-0.69205 0.26253,-1.54052 0.71428,-2.14286 0.31944,-0.42592 1.05211,-0.33782 1.42857,-0.71429 2.78767,-2.78766 -0.16534,-0.3836 0.71429,-2.14285 0.30117,-0.60234 1.1274,-0.82624 1.42857,-1.42857 0.10648,-0.21296 -0.16836,-0.54593 0,-0.71429 0.16836,-0.16836 0.54593,0.16836 0.71429,0 0.14602,-0.14603 -0.14161,-1.85965 0,-2.14286 0.15058,-0.30117 0.5275,-0.43412 0.71428,-0.71428 1.35316,0.0813 0.47619,-1.66667 0.71429,-2.14286 0.15058,-0.30117 0.5637,-0.41312 0.71428,-0.71429 0.10648,-0.21295 0,-0.47619 0,-0.71428 0.2381,-0.2381 0.5637,-0.41312 0.71429,-0.71429 1.43105,-2.86211 -1.43106,1.43354 0,-1.42857 0.15058,-0.30117 0.47619,-0.47619 0.71428,-0.71428 0,-0.4762 -0.15058,-0.97682 0,-1.42858 0.10648,-0.31943 0.51226,-0.44491 0.71429,-0.71428 0.48902,-0.65203 1.81049,-2.57432 2.14286,-3.57143 0.0753,-0.22588 0,-0.47619 0,-0.71429 0.23809,-0.23809 0.5637,-0.41311 0.71428,-0.71428 0.21296,-0.42592 -0.33671,-1.09186 0,-1.42857 0.16836,-0.16836 0.47619,0 0.71429,0 0.23809,-0.47619 0.54593,-0.9235 0.71428,-1.42857 0.21429,-0.64286 -0.21428,-1.5 0,-2.14286 0.10648,-0.31944 0.56371,-0.41312 0.71429,-0.71429 0.10648,-0.21296 -0.10648,-0.50132 0,-0.71428 0.30117,-0.60234 1.21561,-0.7897 1.42857,-1.42857 0.15059,-0.45176 -0.15058,-0.97682 0,-1.42858 0.10648,-0.31943 0.52751,-0.43412 0.71429,-0.71428 0.30346,-0.45519 2.02703,-3.8224 2.14285,-4.28572 0.1155,-0.46197 -0.15058,-0.97681 0,-1.42857 0.10648,-0.31944 0.52751,-0.43412 0.71429,-0.71428 0.29532,-0.44298 0.51656,-0.93426 0.71429,-1.42857 2.87607,-7.1902 -0.55772,1.51656 0.71428,-3.57143 0.12913,-0.5165 0.58516,-0.91207 0.71429,-1.42857 0.11549,-0.46198 -0.1155,-0.9666 0,-1.42858 0.12912,-0.5165 0.58516,-0.91207 0.71428,-1.42857 0.1155,-0.46197 -0.15058,-0.97681 0,-1.42857 0.10648,-0.31944 0.60781,-0.39485 0.71429,-0.71428 0.15058,-0.45176 0,-0.95239 0,-1.42858 0,-0.23809 -0.10648,-0.50132 0,-0.71428 0.15058,-0.30117 0.5637,-0.41312 0.71428,-0.71429 0.21296,-0.42592 -0.21295,-1.00265 0,-1.42857 0.15059,-0.30117 0.56371,-0.41312 0.71429,-0.71428 0.10648,-0.21296 -0.16836,-0.54593 0,-0.71429 0.16836,-0.16836 0.54593,0.16836 0.71429,0 0.33671,-0.33672 -0.21296,-1.00265 0,-1.42857 0.15058,-0.30117 0.5637,-0.41312 0.71428,-0.71429 0.10648,-0.21296 0,-0.47619 0,-0.71428 0.47619,-0.47619 1.05502,-0.86824 1.42857,-1.42857 0.13207,-0.19811 -0.10648,-0.50133 0,-0.71429 0.15059,-0.30117 0.5637,-0.41312 0.71429,-0.71429 0.87962,-1.75925 -2.07338,0.64481 0.71428,-2.14285 0.14603,-0.14603 1.85965,0.1416 2.14286,0 0.65478,-0.32739 2.01876,-2.70203 2.14286,-2.85715 0.42069,-0.52586 0.95238,-0.95238 1.42857,-1.42857 0.47619,-0.47619 0.90271,-1.00788 1.42857,-1.42857 1.52995,-1.22396 3.26813,-1.99121 5,-2.85714 0.47619,-0.2381 0.9235,-0.54593 1.42857,-0.71429 0.22588,-0.0753 0.50133,0.10648 0.71429,0 0.60234,-0.30117 0.82623,-1.1274 1.42857,-1.42857 0.21296,-0.10648 0.54593,0.16836 0.71429,0 0.16835,-0.16836 -0.16836,-0.54593 0,-0.71428 0.16835,-0.16836 0.50132,0.10647 0.71428,0 0.29554,-0.14777 1.94102,-1.8401 2.14286,-2.14286 0.29532,-0.44298 0.41896,-0.98559 0.71428,-1.42857 1.09399,-1.64098 0.408,0.30628 2.14286,-1.42857 0.37646,-0.37647 0.28837,-1.10914 0.71429,-1.42858 0.29262,-0.21946 3.13488,-0.8465 3.57143,-1.42857 3.00272,-4.00363 -1.67448,-0.51756 2.14285,-3.57143 0.67035,-0.53627 1.47251,-0.89229 2.14286,-1.42857 0.52586,-0.42069 0.91726,-0.9903 1.42857,-1.42857 1.15753,-0.99217 2.55156,-1.72395 3.57143,-2.85714 1.14857,-1.27619 1.72654,-2.9936 2.85714,-4.28572 0.56531,-0.64606 1.45609,-0.91349 2.14286,-1.42857 0.38147,-0.2861 1.88937,-1.76262 2.14286,-2.14285 0.29532,-0.44299 0.33782,-1.05211 0.71428,-1.42858 0.37646,-0.37646 0.9235,-0.54592 1.42857,-0.71428 0.22588,-0.0753 0.54593,0.16836 0.71429,0 0.16836,-0.16836 -0.10648,-0.50133 0,-0.71429 0.15058,-0.30117 0.5637,-0.41311 0.71429,-0.71428 0.10648,-0.21296 -0.16836,-0.54593 0,-0.71429 0.16835,-0.16836 0.50132,0.10648 0.71428,0 0.30117,-0.15058 0.47619,-0.47619 0.71429,-0.71428 0.47619,-0.4762 1.05501,-0.86824 1.42857,-1.42858 0.13207,-0.1981 -0.16836,-0.54592 0,-0.71428 0.37646,-0.37646 1.05211,-0.33783 1.42857,-0.71429 0.37646,-0.37646 0.41896,-0.98559 0.71429,-1.42857 0.37355,-0.56033 1.1274,-0.82623 1.42857,-1.42857 0.10648,-0.21296 -0.10648,-0.50133 0,-0.71429 0.15058,-0.30117 0.5637,-0.41311 0.71428,-0.71428 0.10648,-0.21296 -0.0753,-0.48841 0,-0.71429 0.16836,-0.50507 0.54593,-0.92349 0.71429,-1.42857 0.15058,-0.45175 -0.21296,-1.00265 0,-1.42857 0.15058,-0.30117 0.5637,-0.41312 0.71428,-0.71429 0.21296,-0.42591 -0.21295,-1.00265 0,-1.42857 0.30117,-0.60234 1.12741,-0.82623 1.42858,-1.42857 0.21295,-0.42592 -0.33672,-1.09185 0,-1.42857 0.16835,-0.16836 0.54592,-0.16836 0.71428,0 0.16836,0.16836 -0.10648,0.50133 0,0.71429 0.15059,0.30116 0.5637,0.41311 0.71429,0.71428 0.10648,0.21296 -0.16836,0.54593 0,0.71429 0.37646,0.37646 1.05211,0.33782 1.42857,0.71428 0.16836,0.16836 -0.13207,0.51618 0,0.71429 0.37355,0.56033 1.08209,0.8511 1.42857,1.42857 0.38738,0.64563 0.29664,1.51639 0.71429,2.14286 0.56033,0.84049 1.42857,1.42857 2.14285,2.14285 0.71429,0.95238 1.51191,1.84763 2.14286,2.85715 1.12868,1.80588 1.61934,3.98137 2.85714,5.71428 0.58714,0.822 1.49618,1.36684 2.14286,2.14286 0.54958,0.65949 0.879,1.48337 1.42857,2.14286 0.64669,0.77602 1.51182,1.35406 2.14286,2.14285 0.66517,0.83147 0.88074,1.94409 1.42857,2.85715 0.44168,0.73612 0.9869,1.40673 1.42857,2.14285 0.27392,0.45653 0.41897,0.98559 0.71429,1.42858 0.18677,0.28016 0.5637,0.41311 0.71428,0.71428 0.21296,0.42592 -0.15058,0.97682 0,1.42857 0.16836,0.50508 0.54593,0.9235 0.71429,1.42857 0.20046,0.60138 -0.21263,3.14617 0,3.57143 0.15058,0.30117 0.5637,0.41312 0.71428,0.71429 0.23156,0.4631 -0.22431,3.61277 0,4.28571 0.16836,0.50508 0.54593,0.9235 0.71429,1.42857 0.21429,0.64286 -0.21429,1.5 0,2.14286 0.16836,0.50508 0.58516,0.91207 0.71429,1.42857 0.087,0.348 -0.18885,2.47945 0,2.85715 0.15058,0.30116 0.5637,0.41311 0.71428,0.71428 0.10648,0.21296 -0.0753,0.48841 0,0.71429 1.72462,5.17387 -0.20593,-1.12615 1.42857,2.14285 0.10648,0.21296 -0.10648,0.50133 0,0.71429 0.0948,0.18965 1.95321,2.04803 2.14286,2.14286 0.21296,0.10648 0.54593,-0.16836 0.71429,0 0.16835,0.16836 -0.16836,0.54592 0,0.71428 0.16835,0.16836 0.47619,0 0.71428,0 0.2381,0 0.48841,0.0753 0.71429,0 0.50507,-0.16836 0.91207,-0.58516 1.42857,-0.71428 0.46197,-0.1155 0.97682,0.15058 1.42857,0 0.70189,-0.23397 1.17854,-1.76781 1.42857,-2.14286 0.54945,-0.82418 1.59341,-1.31868 2.14286,-2.14286 0.59064,-0.88596 0.95238,-1.90476 1.42857,-2.85714 1.04639,-2.09277 1.57436,-4.15458 2.14286,-6.42857 0.23809,-0.95238 0.57545,-1.88532 0.71428,-2.85714 0.10102,-0.70711 0,-1.42858 0,-2.14286 0,-1.66667 0,-3.33334 0,-5 0,-1.42857 0,-2.85714 0,-4.28572 0,-0.71428 -0.22587,-1.46522 0,-2.14285 0.10648,-0.31944 0.63262,-0.38762 0.71429,-0.71429 0.15765,-0.63061 0,-3.2971 0,-4.28571 0,-0.47619 0,-0.95238 0,-1.42857 0,-0.2381 -0.10648,-0.50133 0,-0.71429 0.15058,-0.30117 0.5637,-0.41312 0.71428,-0.71429 0.21296,-0.42591 -0.15058,-0.97681 0,-1.42857 0.16836,-0.50507 0.54593,-0.92349 0.71429,-1.42857 0.0753,-0.22588 -0.16836,-0.54593 0,-0.71428 0.16836,-0.16836 0.54593,0.16835 0.71429,0 0.17188,-0.17188 -0.17188,-2.68527 0,-2.85715 0.37646,-0.37646 1.05211,-0.33782 1.42857,-0.71428 0.16836,-0.16836 -0.10648,-0.50133 0,-0.71429 0.15058,-0.30117 0.5637,-0.41312 0.71428,-0.71428 0.21296,-0.42592 -0.15058,-0.97682 0,-1.42858 1.72463,-5.17386 -0.20593,1.12615 1.42857,-2.14285 0.10648,-0.21296 -0.10648,-0.50133 0,-0.71429 0.15059,-0.30117 0.56371,-0.41312 0.71429,-0.71428 0.10648,-0.21296 -0.10648,-0.50133 0,-0.71429 0.15058,-0.30117 0.5637,-0.41312 0.71429,-0.71429 0.21295,-0.42591 -0.21296,-1.00265 0,-1.42857 0.15058,-0.30117 0.5637,-0.41311 0.71428,-0.71428 0.10648,-0.21296 0,-0.47619 0,-0.71429 0,-0.47619 -0.11549,-0.9666 0,-1.42857 0.12913,-0.5165 0.47619,-0.95238 0.71429,-1.42857 0.23809,-0.47619 0.39484,-1.00266 0.71428,-1.42857 0.40406,-0.53875 1.02451,-0.88983 1.42857,-1.42857 0.31944,-0.42592 0.47619,-0.95239 0.71429,-1.42858 0.47619,-0.95238 0.95238,-1.90476 1.42857,-2.85714 0.2381,-0.47619 0.41897,-0.98559 0.71429,-1.42857 0.18677,-0.28017 0.47619,-0.47619 0.71428,-0.71429 0.95238,-0.95238 1.90476,-1.90476 2.85715,-2.85714 0.23809,-0.23809 0.5637,-0.41312 0.71428,-0.71428 0.10648,-0.21296 -0.16836,-0.54593 0,-0.71429 0.16836,-0.16836 0.54593,0.16836 0.71429,0 0.16836,-0.16836 -0.10648,-0.50133 0,-0.71429 0.15058,-0.30117 0.47619,-0.47619 0.71428,-0.71428 0.2381,-0.2381 0.37757,-0.71429 0.71429,-0.71429 1.08388,0 0.57199,1.00169 0.71428,1.42857 0.77722,2.33165 0.93313,0.59875 1.42858,3.57143 0.11742,0.70457 -0.14009,1.44244 0,2.14286 0.10441,0.52206 0.47619,0.95238 0.71428,1.42857 0.47619,0.95238 0.95238,1.90476 1.42857,2.85714 0.70347,1.40695 1.55889,2.82579 2.14286,4.28572 0.27963,0.69907 0.43466,1.44378 0.71429,2.14286 0.19772,0.49431 0.60987,0.90651 0.71428,1.42857 0.14008,0.70041 -0.22588,1.46522 0,2.14285 0.27147,0.81442 1.19273,1.31743 1.42857,2.14286 0.26164,0.91574 -0.13468,1.91434 0,2.85714 -0.24808,1.45332 1.17712,2.31415 1.42857,3.57143 0.14009,0.70042 -0.14008,1.44244 0,2.14286 0.10442,0.52206 0.60988,0.90651 0.71429,1.42857 0.14008,0.70042 -0.14008,1.44244 0,2.14286 0.10441,0.52206 0.51656,0.93425 0.71429,1.42857 0.27962,0.69907 0.43465,1.44379 0.71428,2.14286 0.39546,0.98863 1.09186,1.84699 1.42857,2.85714 0.0753,0.22588 -0.1225,0.51012 0,0.71429 0.6125,1.02082 1.4825,1.8666 2.14286,2.85714 0.83756,1.25634 0.84778,2.11944 1.42857,3.57143 0.19773,0.49432 0.47619,0.95238 0.71429,1.42857 0.23809,0.47619 0.44037,0.97204 0.71428,1.42857 1.00619,1.67699 1.48976,1.93867 2.14286,3.57143 0.27963,0.69907 0.43466,1.44378 0.71429,2.14286 0.19772,0.49431 0.60987,0.90651 0.71428,1.42857 0.14008,0.70041 -0.14008,1.44244 0,2.14285 0.10441,0.52206 0.47619,0.95238 0.71429,1.42858 0.47619,0.95238 0.95238,1.90476 1.42857,2.85714 0.23809,0.47619 0.58516,0.91207 0.71428,1.42857 0.1155,0.46197 -0.15058,0.97682 0,1.42857 0.10648,0.31944 0.56371,0.41312 0.71429,0.71429 0.21296,0.42591 -0.15058,0.97681 0,1.42857 0.16836,0.50507 0.58516,0.91207 0.71429,1.42857 0.11549,0.46197 -0.1155,0.9666 0,1.42857 0.12912,0.5165 0.60987,0.90651 0.71428,1.42857 0.14008,0.70042 -0.0886,1.43409 0,2.14286 -1.27304,2.23556 1.08863,3.3003 1.42857,5 0.23347,1.16736 0,2.38095 0,3.57143 0,0.23809 -0.0753,0.48841 0,0.71428 0.16836,0.50508 0.54593,0.9235 0.71429,1.42858 0.0753,0.22587 -0.10648,0.50132 0,0.71428 0.15058,0.30117 0.5637,0.41312 0.71428,0.71429 0.10648,0.21296 -0.10648,0.50132 0,0.71428 0.15059,0.30117 0.56371,0.41312 0.71429,0.71429 0.10648,0.21296 -0.10648,0.50133 0,0.71428 0.15058,0.30117 0.5637,0.41312 0.71429,0.71429 0.10648,0.21296 -0.10648,0.50133 0,0.71429 1.08912,2.17825 0.56626,-1.30639 1.42857,2.14285 0.11549,0.46198 -0.15059,0.97682 0,1.42857 0.21296,0.63888 1.21561,0.7897 1.42857,1.42858 0.15058,0.45175 -0.21296,1.00265 0,1.42857 0.30117,0.60234 1.05502,0.86824 1.42857,1.42857 0.13207,0.19811 0,0.47619 0,0.71428 0,0.47619 -0.0934,0.96163 0,1.42858 0.14766,0.7383 0.37757,1.46942 0.71429,2.14285 0.15058,0.30117 0.5275,0.43412 0.71428,0.71429 0.59064,0.88596 0.83793,1.97118 1.42857,2.85714 0.37356,0.56033 1.21562,0.7897 1.42857,1.42857 0.15059,0.45176 -0.15058,0.97682 0,1.42857 0.21296,0.63888 1.05502,0.86824 1.42858,1.42858 1.35316,-0.0813 0.47619,1.66666 0.71428,2.14285 0.15059,0.30117 0.5637,0.41312 0.71429,0.71429 0.10648,0.21296 -0.10648,0.50133 0,0.71428 0.30117,0.60234 1.1274,0.82624 1.42857,1.42858 0.10648,0.21295 -0.10648,0.50132 0,0.71428 0.15058,0.30117 0.5637,0.41312 0.71428,0.71429 0.21296,0.42591 -0.33671,1.09185 0,1.42857 0.16836,0.16836 0.54593,-0.16836 0.71429,0 0.16836,0.16836 -0.0753,0.48841 0,0.71428 0.16836,0.50508 0.54593,0.9235 0.71429,1.42858 0.0753,0.22587 -0.10648,0.50132 0,0.71428 0.15058,0.30117 0.5637,0.41312 0.71428,0.71429 0.10648,0.21296 -0.10648,0.50132 0,0.71428 0.15059,0.30117 0.5637,0.41312 0.71429,0.71429 0.10648,0.21296 -0.10648,0.50133 0,0.71428 0.15058,0.30117 0.5637,0.41312 0.71428,0.71429 0.10648,0.21296 -0.10648,0.50133 0,0.71429 0.15059,0.30116 0.5637,0.41311 0.71429,0.71428 0.10648,0.21296 -0.10648,0.50133 0,0.71429 0.15058,0.30117 0.5637,0.41311 0.71428,0.71428 0.10648,0.21296 -0.16835,0.54593 0,0.71429 0.16836,0.16836 0.71429,-0.2381 0.71429,0 0,0.23809 -0.82077,0.21296 -0.71429,0 0.30117,-0.60234 1.21562,-0.7897 1.42858,-1.42857 0.30117,-0.90351 -0.18678,-1.92326 0,-2.85715 0.066,-0.33017 0.6078,-0.39484 0.71428,-0.71428 0.30117,-0.90351 -0.30117,-1.95364 0,-2.85714 0.10648,-0.31944 0.5637,-0.41312 0.71429,-0.71429 0.10648,-0.21296 0,-0.47619 0,-0.71429 0,-0.47619 0,-0.95238 0,-1.42857 0,-1.19047 0,-2.38095 0,-3.57143 0,-1.19047 0,-2.38095 0,-3.57142 0,-0.4762 0,-1.90477 0,-1.42858 0,2.79033 -0.21296,0.0754 0.71428,2.85715 0.15059,0.45175 -0.15058,0.97681 0,1.42857 0.33672,1.01015 0.95238,1.90476 1.42857,2.85714 0.2381,0.47619 0.41897,0.98559 0.71429,1.42857 0.18678,0.28017 0.60781,0.39485 0.71429,0.71429 0.15058,0.45175 -0.0783,0.95886 0,1.42857 0.16138,0.96833 0.52176,1.89451 0.71428,2.85714 0.0467,0.23347 -0.10648,0.50133 0,0.71429 0.15059,0.30117 0.60781,0.39485 0.71429,0.71428 0.15058,0.45176 0,0.95238 0,1.42858 0.23809,0.47619 0.54592,0.92349 0.71428,1.42857 0.25301,0.75901 -0.253,2.09813 0,2.85714 0.10648,0.31944 0.5637,0.41312 0.71429,0.71429 0.10648,0.21295 0,0.47619 0,0.71428 0.23809,0.47619 0.41896,0.98559 0.71428,1.42857 0.18678,0.28017 0.56371,0.41312 0.71429,0.71429 0.28571,0.57143 -0.28571,1.57143 0,2.14286 0.15058,0.30116 0.60781,0.39484 0.71429,0.71428 0.19719,0.59159 -0.22713,3.11719 0,3.57143 0.15058,0.30117 0.5275,0.43412 0.71428,0.71429 0.29532,0.44298 0.47619,0.95238 0.71429,1.42857 0.23809,0.47619 0.51656,0.93425 0.71428,1.42857 0.27963,0.69907 0.37757,1.46942 0.71429,2.14286 0.15058,0.30116 0.6078,0.39484 0.71428,0.71428 0.15059,0.45176 -0.11549,0.9666 0,1.42857 0.25825,1.033 1.09186,1.84699 1.42858,2.85715 0.0753,0.22587 -0.10648,0.50132 0,0.71428 1.6345,3.26901 -0.29606,-3.03101 1.42857,2.14286 0.0753,0.22588 -0.10648,0.50133 0,0.71428 0.15058,0.30117 0.6078,0.39485 0.71428,0.71429 0.15059,0.45175 0,0.95238 0,1.42857 0,0.2381 -0.10648,0.50133 0,0.71429 0.15059,0.30117 0.52751,0.43412 0.71429,0.71428 0.29532,0.44298 0.41896,0.98559 0.71428,1.42857 0.18678,0.28017 0.60781,0.39485 0.71429,0.71429 0.15058,0.45175 -0.15058,0.97682 0,1.42857 0.10648,0.31944 0.60781,0.39485 0.71429,0.71429 0.15058,0.45175 -0.1155,0.9666 0,1.42857 0.12912,0.5165 0.54592,0.92349 0.71428,1.42857 0.0753,0.22588 -0.0753,0.48841 0,0.71429 0.33672,1.01015 1.09186,1.84699 1.42857,2.85714 0.0753,0.22588 -0.10648,0.50133 0,0.71428 0.15059,0.30117 0.5637,0.41312 0.71429,0.71429 0.10648,0.21296 -0.10648,0.50133 0,0.71429 0.15058,0.30116 0.5637,0.41311 0.71428,0.71428 0.10648,0.21296 -0.10648,0.50133 0,0.71429 0.15059,0.30117 0.56371,0.41311 0.71429,0.71428 0.10648,0.21296 -0.10648,0.50133 0,0.71429 0.15058,0.30117 0.5637,0.41311 0.71429,0.71428 0.10648,0.21296 -0.10648,0.50133 0,0.71429 0.15058,0.30117 0.6078,0.39485 0.71428,0.71429 0,3.25163 -0.33672,0.0408 0.71429,2.14285 0.21296,0.42592 -0.33672,1.09186 0,1.42857 0.16836,0.16836 0.6078,-0.21295 0.71428,0 0.21296,0.42592 -0.15058,0.97682 0,1.42858 0.10648,0.31943 0.5637,0.41311 0.71429,0.71428 0.21296,0.42592 -0.21296,1.00265 0,1.42857 0.15058,0.30117 0.5637,0.41312 0.71428,0.71429 0.21296,0.42592 -0.21295,1.00265 0,1.42857 0.15059,0.30117 0.56371,0.41312 0.71429,0.71429 0.10648,0.21295 -0.10648,0.50132 0,0.71428 0.15058,0.30117 0.5637,0.41312 0.71429,0.71429 0.10648,0.21296 -0.16836,0.54592 0,0.71428 0.16835,0.16836 0.6078,-0.21296 0.71428,0 0.21296,0.42592 -0.21296,1.00266 0,1.42857 0.10648,0.21296 0.54593,-0.16835 0.71429,0 0.16836,0.16836 -0.16836,0.54593 0,0.71429 0.95238,0.95238 0.71428,-1.19048 0.71428,0.71429"
       id="path3781"
       inkscape:connector-curvature="0" />
  </g>
</svg>
